<svg version="1.0" xmlns="http://www.w3.org/2000/svg" viewBox="0 0 2485 447">
  <g fill="currentColor">
    <path d="M197 3995c-6-463-17-780-57-1690-36-809-75-1490-115-1995-8-102-15-194-15-205 0-20 6-20 553-20l554 0 7 348c6 314 71 1866 78 1872 7 6 1297-1849 1408-2025l123-195 628 0c417 0 625 3 621 10-3 5-223 294-488 642-286 374-592 788-750 1015-147 211-315 445-372 521-90 121-102 140-90 155 7 9 63 75 123 147 61 71 405 492 765 935 360 443 682 839 716 880l62 75-597-1-596-2-135-184c-144-197-338-444-995-1268l-410-514-3 80c-1 45 20 475 48 955 27 481 50 888 50 904l0 30-553 0-554 0-6-470zM5933 3435c-138-25-271-79-383-155-134-91-195-168-216-270-9-45-10-18-6 155l5 210-484 0-484 0-1-450c0-629-18-1141-70-2013-24-414-44-769-44-790l0-37 508 0 507 0-3 420c-7 817 35 1416 112 1605 47 119 109 213 196 301 97 97 180 146 307 181 109 30 320 29 487-1 66-12 121-20 123-18 2 2-1 78-6 168-6 90-13 278-17 416-6 219-9 253-23 257-112 35-374 45-508 21zM8275 3444c-393-56-697-164-942-337-115-81-281-248-365-367-290-409-391-1011-258-1533 82-318 247-594 468-783 237-203 501-318 879-385 108-20 164-23 363-24 300 0 472 24 715 102 661 212 1071 772 1136 1551 33 388-72 812-274 1112-66 97-210 245-317 326-93 71-319 188-441 228-101 34-253 72-369 92-91 16-519 29-595 18zm413-769c238-50 418-199 502-416 52-135 73-263 73-449 0-631-282-1019-771-1056-160-12-337 26-460 98-32 18-94 70-139 114-67 68-89 97-126 175-115 239-137 580-58 892 51 201 125 340 239 449 101 96 225 161 367 191 92 20 285 21 373 2zM12555 3435c-155-24-318-78-434-141-143-78-274-194-312-277l-19-42 5 80c2 44 7 134 10 200l5 120-483 0-484 0-6-405c-7-390-20-759-52-1450-25-536-71-1341-81-1400l-5-35 509 0 509 0 2 245c4 688 54 1470 110 1730 65 298 228 504 450 570 100 31 241 25 322-12 101-46 175-132 215-248 17-50 19-85 18-370 0-173-8-452-18-620-42-770-66-1180-72-1235l-6-60 505 0 505 0 6 170c3 94 11 357 16 585 29 1169 80 1435 316 1667 108 106 236 150 402 140 208-12 338-119 376-309 22-108 20-280-9-838-30-570-73-1331-79-1380l-3-35 502 0 503 0 6 205c18 564 52 1334 76 1675 38 556 38 690 1 835-69 264-271 474-547 568-193 66-340 87-572 79-351-10-588-96-821-297-82-70-139-146-162-213l-17-49-21 67c-78 240-344 421-706 480-109 18-348 18-460 0zM17830 3439c-331-40-614-145-831-308-258-194-437-454-553-803-197-592-128-1253 178-1697 28-41 94-118 146-170 301-303 675-431 1300-448 238-6 478 7 692 38 130 18 488 85 493 91 2 3 123 762 121 765-1 1-77-19-171-43-640-166-985-196-1280-112-232 66-403 200-498 389-67 132-88 223-94 402l-6 147 1145 0 1145 0 19 123c23 154 23 373-1 512-50 291-178 547-366 734-199 198-408 296-769 362-91 17-164 22-355 24-132 2-274-1-315-6zm437-645c261-54 411-239 430-531l6-93-666 0c-366 0-668 3-670 8-7 12 79 224 118 291 72 122 209 237 345 291 127 50 296 63 437 34zM21672 3429c-170-36-295-94-425-199-78-62-122-119-144-185-12-36-13-19-10 145l4 185-486 0-486 0 3-350c5-523-22-1314-73-2165-25-410-45-752-45-760 0-13 63-15 508-15l507 0 1 535c0 822 34 1280 107 1483 59 163 203 342 337 420 169 98 354 117 655 68 65-11 121-19 122-17 2 2-1 115-7 252-5 137-13 324-16 416-5 143-8 168-23 172-125 39-382 46-529 15zM23495 3434c-121-16-172-28-295-66-176-56-286-123-402-247-62-65-87-103-132-193-71-146-89-221-88-368 1-141 23-238 86-365 105-212 217-323 761-749 294-230 356-300 371-410 14-96-54-205-156-253-92-43-188-56-369-50-225 7-445 56-818 180-95 31-103 33-103 16 0-25 70-773 73-775 7-7 360-78 465-94 243-36 357-44 607-44 213 0 267 4 369 22 303 56 559 180 713 346 238 258 284 600 123 931-106 218-210 322-711 708-338 259-394 319-406 433-15 142 85 229 302 264 91 15 324 12 444-5 124-18 323-65 434-101 43-14 80-24 82-23 4 5-41 748-46 753-13 13-416 71-629 91-200 18-538 18-675-1z" transform="matrix(.1 0 0 -.1 0 447)"/>
  </g>
</svg>